<svg width="16" height="16" viewBox="0 0 16 16" fill="none" xmlns="http://www.w3.org/2000/svg">
<g id="icn">
<path id="Vector" d="M15.3507 8.17107C15.3513 7.65999 15.3081 7.14981 15.2215 6.64612H8.1488V9.53457H12.1997C12.1168 9.99589 11.9414 10.4357 11.6839 10.8274C11.4265 11.219 11.0924 11.5546 10.7018 11.8137V13.6886H13.1195C14.5351 12.3834 15.3507 10.4533 15.3507 8.17107Z" fill="#4285F4"/>
<path id="Vector_2" d="M8.14882 15.5C10.1727 15.5 11.8768 14.8354 13.1195 13.6896L10.7019 11.8147C10.029 12.2709 9.16233 12.5313 8.14882 12.5313C6.19263 12.5313 4.53227 11.2126 3.93854 9.43561H1.448V11.3678C2.07221 12.61 3.02938 13.6541 4.21264 14.3838C5.39589 15.1135 6.75867 15.4999 8.14882 15.5Z" fill="#34A853"/>
<path id="Vector_3" d="M3.93855 9.43563C3.62466 8.50445 3.62466 7.49606 3.93855 6.56489V4.63266H1.448C0.922892 5.67758 0.649414 6.83082 0.649414 8.00026C0.649414 9.1697 0.922892 10.3229 1.448 11.3679L3.93855 9.43563Z" fill="#FBBC04"/>
<path id="Vector_4" d="M8.14882 3.46914C9.21835 3.45167 10.2518 3.85577 11.0258 4.59411L13.1664 2.45355C11.809 1.17867 10.0109 0.478744 8.14882 0.500492C6.75867 0.500555 5.39589 0.886995 4.21264 1.61667C3.02938 2.34634 2.07221 3.39052 1.448 4.63265L3.93854 6.56488C4.53227 4.78785 6.19263 3.46914 8.14882 3.46914Z" fill="#EA4335"/>
</g>
</svg>
